<svg xmlns="http://www.w3.org/2000/svg" preserveAspectRatio="none" viewBox="0 0 64 19">
  <defs>
    <style>
      .cls-1 {
        fill: #fff;
        fill-rule: evenodd;
      }
    </style>
  </defs>
  <path id="ABOUT" class="cls-1" d="M5.043,15.982L6.23,12.325h5l1.187,3.656h1.837L9.842,2.895H7.7L3.286,15.982H5.043Zm1.67-5.142L8.726,4.67l2.021,6.17H6.713Zm17.016-.971a3.271,3.271,0,0,0-1.811-1.156V8.643A3.294,3.294,0,0,0,23.268,7.5a2.9,2.9,0,0,0,.488-1.652,3.017,3.017,0,0,0-.325-1.437A2.418,2.418,0,0,0,22.4,3.422a3.912,3.912,0,0,0-1.34-.435,17.432,17.432,0,0,0-2.1-.092H15.494V15.982h3.753a8.111,8.111,0,0,0,2.18-.242,4.6,4.6,0,0,0,1.582-.822A3.48,3.48,0,0,0,24,13.688a3.84,3.84,0,0,0,.369-1.723A3.352,3.352,0,0,0,23.729,9.869ZM21.778,7.113a1.412,1.412,0,0,1-.562.668,2.468,2.468,0,0,1-.8.347,6.25,6.25,0,0,1-1.2.084H17.234V4.38H18.9q0.914,0,1.433.053a2.388,2.388,0,0,1,.94.29,1.2,1.2,0,0,1,.51.549,1.969,1.969,0,0,1,.158.822A2.732,2.732,0,0,1,21.778,7.113Zm0.554,6.051a2.222,2.222,0,0,1-.721.778,2.812,2.812,0,0,1-1.16.448,11.989,11.989,0,0,1-1.8.105H17.234V9.662h1.978a11.834,11.834,0,0,1,1.384.062,2.594,2.594,0,0,1,.9.281,1.764,1.764,0,0,1,.853.813,3.036,3.036,0,0,1,.211,1.217A2.427,2.427,0,0,1,22.332,13.165Zm11.3-10.077a5.986,5.986,0,0,0-2.408-.466,6.058,6.058,0,0,0-2.386.453A4.935,4.935,0,0,0,27.016,4.4a6.351,6.351,0,0,0-1.165,2.145,9.331,9.331,0,0,0-.409,2.9,9.516,9.516,0,0,0,.4,2.883,5.977,5.977,0,0,0,1.16,2.144,4.891,4.891,0,0,0,1.828,1.336,6.1,6.1,0,0,0,2.391.448,6.176,6.176,0,0,0,2.351-.435,4.935,4.935,0,0,0,1.868-1.349,5.9,5.9,0,0,0,1.169-2.153,9.541,9.541,0,0,0,.4-2.874A9.425,9.425,0,0,0,36.6,6.533,6.075,6.075,0,0,0,35.445,4.4,5.038,5.038,0,0,0,33.634,3.088Zm0.5,10.3a3.756,3.756,0,0,1-5.8,0,6.235,6.235,0,0,1-1.081-3.942,8.663,8.663,0,0,1,.277-2.285,4.756,4.756,0,0,1,.8-1.679,3.442,3.442,0,0,1,1.252-1.024,4.254,4.254,0,0,1,3.3.009,3.313,3.313,0,0,1,1.252,1.015,4.817,4.817,0,0,1,.791,1.661,8.544,8.544,0,0,1,.281,2.3A6.254,6.254,0,0,1,34.131,13.384Zm11.4,2.571a4.009,4.009,0,0,0,1.455-.905,3.656,3.656,0,0,0,.971-1.652,8.639,8.639,0,0,0,.277-2.338V2.895h-1.74V11.1a7.889,7.889,0,0,1-.119,1.485A3.112,3.112,0,0,1,45.93,13.7a2.189,2.189,0,0,1-.984.8,3.636,3.636,0,0,1-1.45.273,3.56,3.56,0,0,1-1.472-.273,2.216,2.216,0,0,1-.954-0.8,2.885,2.885,0,0,1-.448-1.112,8.587,8.587,0,0,1-.114-1.525V2.895h-1.74V11.06a8.42,8.42,0,0,0,.281,2.351,3.8,3.8,0,0,0,.967,1.639,3.9,3.9,0,0,0,1.468.9A6.953,6.953,0,0,0,45.53,15.955Zm10,0.026V4.442h4.395V2.895H49.393V4.442h4.395v11.54h1.74Z"/>
</svg>
