<svg xmlns="http://www.w3.org/2000/svg" preserveAspectRatio="none" viewBox="0 0 100 18">
  <defs>
    <style>
      .cls-1 {
        fill: #fff;
        fill-rule: evenodd;
      }
    </style>
  </defs>
  <path id="PORTFOLIO" class="cls-1" d="M12.549,4.982a3.574,3.574,0,0,0-1.143-1.27,4.225,4.225,0,0,0-1.441-.624,8.719,8.719,0,0,0-1.978-.193H4.7V15.982h1.74V11.1H7.917a6.657,6.657,0,0,0,2.312-.343A4.473,4.473,0,0,0,11.82,9.75a3.8,3.8,0,0,0,.839-1.3,4.311,4.311,0,0,0,.3-1.613A3.882,3.882,0,0,0,12.549,4.982ZM10.976,7.975a2.485,2.485,0,0,1-.562.861,2.3,2.3,0,0,1-1.081.611,6.9,6.9,0,0,1-1.705.171H6.441V4.389H7.882A6.869,6.869,0,0,1,9.249,4.5a2.748,2.748,0,0,1,.962.387,1.963,1.963,0,0,1,.708.817,2.771,2.771,0,0,1,.233,1.178A3.08,3.08,0,0,1,10.976,7.975ZM22.068,3.088a5.986,5.986,0,0,0-2.408-.466,6.058,6.058,0,0,0-2.386.453A4.935,4.935,0,0,0,15.45,4.4a6.351,6.351,0,0,0-1.165,2.145,9.331,9.331,0,0,0-.409,2.9,9.516,9.516,0,0,0,.4,2.883,5.977,5.977,0,0,0,1.16,2.144,4.891,4.891,0,0,0,1.828,1.336,6.1,6.1,0,0,0,2.391.448,6.176,6.176,0,0,0,2.351-.435,4.935,4.935,0,0,0,1.868-1.349,5.9,5.9,0,0,0,1.169-2.153,9.541,9.541,0,0,0,.4-2.874,9.425,9.425,0,0,0-.413-2.909A6.075,6.075,0,0,0,23.878,4.4,5.038,5.038,0,0,0,22.068,3.088Zm0.5,10.3a3.5,3.5,0,0,1-2.9,1.367,3.507,3.507,0,0,1-2.9-1.367,6.235,6.235,0,0,1-1.081-3.942,8.663,8.663,0,0,1,.277-2.285,4.756,4.756,0,0,1,.8-1.679,3.442,3.442,0,0,1,1.253-1.024,4.254,4.254,0,0,1,3.3.009,3.313,3.313,0,0,1,1.252,1.015A4.817,4.817,0,0,1,23.36,7.14a8.544,8.544,0,0,1,.281,2.3A6.254,6.254,0,0,1,22.564,13.384Zm10.27-3.1a4.282,4.282,0,0,0,1.986-1.433,3.885,3.885,0,0,0,.73-2.408,3.406,3.406,0,0,0-.4-1.723,3.269,3.269,0,0,0-1.085-1.134,3.705,3.705,0,0,0-1.446-.571,12.1,12.1,0,0,0-1.885-.123H27.359V15.982H29.1v-5.2h1.986l4.148,5.2h2.259Zm0.716-2.514a2.267,2.267,0,0,1-.558.879,2.06,2.06,0,0,1-1.02.545,6.265,6.265,0,0,1-1.345.132H29.1V4.389h1.723a6.215,6.215,0,0,1,1.222.1,2.411,2.411,0,0,1,.861.347,1.714,1.714,0,0,1,.624.725,2.426,2.426,0,0,1,.2,1.015A3.588,3.588,0,0,1,33.551,7.773Zm9.295,8.209V4.442H47.24V2.895H36.71V4.442H41.1v11.54h1.74ZM56.389,2.895H48.558V15.982H50.3V9.68h5.836V8.133H50.3V4.442h6.091V2.895Zm9,0.193a5.986,5.986,0,0,0-2.408-.466,6.058,6.058,0,0,0-2.386.453A4.935,4.935,0,0,0,58.771,4.4a6.351,6.351,0,0,0-1.165,2.145,9.328,9.328,0,0,0-.409,2.9,9.516,9.516,0,0,0,.4,2.883,5.975,5.975,0,0,0,1.16,2.144,4.891,4.891,0,0,0,1.828,1.336,6.1,6.1,0,0,0,2.391.448,6.176,6.176,0,0,0,2.351-.435A4.935,4.935,0,0,0,67.2,14.47a5.9,5.9,0,0,0,1.169-2.153,9.541,9.541,0,0,0,.4-2.874,9.425,9.425,0,0,0-.413-2.909A6.076,6.076,0,0,0,67.2,4.4,5.038,5.038,0,0,0,65.389,3.088Zm0.5,10.3a3.756,3.756,0,0,1-5.8,0,6.235,6.235,0,0,1-1.081-3.942,8.659,8.659,0,0,1,.277-2.285,4.756,4.756,0,0,1,.8-1.679,3.441,3.441,0,0,1,1.252-1.024,4.254,4.254,0,0,1,3.3.009A3.313,3.313,0,0,1,65.89,5.479a4.818,4.818,0,0,1,.791,1.661,8.544,8.544,0,0,1,.281,2.3A6.254,6.254,0,0,1,65.886,13.384Zm12.379,1.05H72.42V2.895H70.68V15.982h7.585V14.435Zm5.941,0.211h-1.67V4.231h1.67V2.895h-5.08V4.231H80.8V14.646h-1.67v1.336h5.08V14.646ZM93.8,3.088a5.987,5.987,0,0,0-2.408-.466A6.058,6.058,0,0,0,89,3.075,4.936,4.936,0,0,0,87.177,4.4a6.349,6.349,0,0,0-1.165,2.145,9.328,9.328,0,0,0-.409,2.9,9.516,9.516,0,0,0,.4,2.883,5.975,5.975,0,0,0,1.16,2.144A4.891,4.891,0,0,0,89,15.806a6.1,6.1,0,0,0,2.391.448,6.175,6.175,0,0,0,2.351-.435,4.934,4.934,0,0,0,1.868-1.349,5.9,5.9,0,0,0,1.169-2.153,9.545,9.545,0,0,0,.4-2.874,9.428,9.428,0,0,0-.413-2.909A6.075,6.075,0,0,0,95.606,4.4,5.037,5.037,0,0,0,93.8,3.088Zm0.5,10.3a3.756,3.756,0,0,1-5.8,0,6.235,6.235,0,0,1-1.081-3.942,8.659,8.659,0,0,1,.277-2.285,4.754,4.754,0,0,1,.8-1.679,3.441,3.441,0,0,1,1.252-1.024,4.254,4.254,0,0,1,3.3.009A3.312,3.312,0,0,1,94.3,5.479a4.817,4.817,0,0,1,.791,1.661,8.548,8.548,0,0,1,.281,2.3A6.255,6.255,0,0,1,94.292,13.384Z"/>
</svg>
