<svg xmlns="http://www.w3.org/2000/svg" preserveAspectRatio="none" viewBox="0 0 83 18">
  <defs>
    <style>
      .cls-1 {
        fill: #fff;
        fill-rule: evenodd;
      }
    </style>
  </defs>
  <path id="CONTACT" class="cls-1" d="M11.086,16.122a9.468,9.468,0,0,0,1.059-.281,7.342,7.342,0,0,0,.927-0.36q0.382-.185.813-0.387V13.02H13.753q-0.2.2-.554,0.488a5.985,5.985,0,0,1-.835.558,5.352,5.352,0,0,1-1.143.466,5.041,5.041,0,0,1-1.4.184,3.8,3.8,0,0,1-1.564-.329,3.546,3.546,0,0,1-1.283-.98,4.953,4.953,0,0,1-.888-1.639,7.323,7.323,0,0,1-.325-2.316,7.806,7.806,0,0,1,.308-2.276A4.776,4.776,0,0,1,6.933,5.5,3.717,3.717,0,0,1,9.825,4.143a4.777,4.777,0,0,1,1.362.176,5.679,5.679,0,0,1,1.09.448,5.87,5.87,0,0,1,.879.589q0.36,0.3.589,0.51h0.141v-2.1q-0.431-.237-0.874-0.435A7.984,7.984,0,0,0,12.145,3a8.593,8.593,0,0,0-1.068-.246,7.465,7.465,0,0,0-1.235-.1,6.011,6.011,0,0,0-2.4.461,5.214,5.214,0,0,0-1.854,1.34A6.2,6.2,0,0,0,4.371,6.586a8.87,8.87,0,0,0-.417,2.865,9.129,9.129,0,0,0,.431,2.927A5.879,5.879,0,0,0,5.6,14.505a5.021,5.021,0,0,0,1.859,1.283,6.3,6.3,0,0,0,2.36.431A6.764,6.764,0,0,0,11.086,16.122ZM22.956,3.088a5.986,5.986,0,0,0-2.408-.466,6.058,6.058,0,0,0-2.386.453A4.935,4.935,0,0,0,16.337,4.4a6.351,6.351,0,0,0-1.165,2.145,9.328,9.328,0,0,0-.409,2.9,9.516,9.516,0,0,0,.4,2.883,5.977,5.977,0,0,0,1.16,2.144,4.891,4.891,0,0,0,1.828,1.336,6.1,6.1,0,0,0,2.391.448,6.176,6.176,0,0,0,2.351-.435,4.935,4.935,0,0,0,1.868-1.349,5.9,5.9,0,0,0,1.169-2.153,9.541,9.541,0,0,0,.4-2.874,9.425,9.425,0,0,0-.413-2.909A6.076,6.076,0,0,0,24.766,4.4,5.038,5.038,0,0,0,22.956,3.088Zm0.5,10.3a3.5,3.5,0,0,1-2.9,1.367,3.507,3.507,0,0,1-2.9-1.367,6.235,6.235,0,0,1-1.081-3.942,8.663,8.663,0,0,1,.277-2.285,4.756,4.756,0,0,1,.8-1.679A3.441,3.441,0,0,1,18.9,4.455a4.254,4.254,0,0,1,3.3.009,3.313,3.313,0,0,1,1.252,1.015,4.817,4.817,0,0,1,.791,1.661,8.544,8.544,0,0,1,.281,2.3A6.254,6.254,0,0,1,23.452,13.384ZM37.607,2.895H35.981V13.257L30.716,2.895h-2.47V15.982h1.626V4.7l5.783,11.285h1.951V2.895ZM45.06,15.982V4.442h4.395V2.895H38.925V4.442H43.32v11.54h1.74Zm5.045,0,1.187-3.656h5l1.187,3.656h1.837L54.9,2.895H52.759L48.347,15.982H50.1Zm1.67-5.142,2.013-6.17,2.021,6.17H51.775ZM66.94,16.122A9.468,9.468,0,0,0,68,15.841a7.342,7.342,0,0,0,.927-0.36q0.382-.185.813-0.387V13.02H69.608q-0.2.2-.554,0.488a5.985,5.985,0,0,1-.835.558,5.352,5.352,0,0,1-1.143.466,5.041,5.041,0,0,1-1.4.184,3.8,3.8,0,0,1-1.564-.329,3.546,3.546,0,0,1-1.283-.98,4.954,4.954,0,0,1-.888-1.639,7.324,7.324,0,0,1-.325-2.316,7.808,7.808,0,0,1,.308-2.276A4.777,4.777,0,0,1,62.788,5.5a3.716,3.716,0,0,1,2.892-1.354,4.777,4.777,0,0,1,1.362.176,5.682,5.682,0,0,1,1.09.448,5.87,5.87,0,0,1,.879.589q0.36,0.3.589,0.51H69.74v-2.1q-0.431-.237-0.874-0.435A7.992,7.992,0,0,0,68,3a8.593,8.593,0,0,0-1.068-.246,7.466,7.466,0,0,0-1.235-.1,6.011,6.011,0,0,0-2.4.461,5.215,5.215,0,0,0-1.855,1.34,6.2,6.2,0,0,0-1.217,2.127,8.872,8.872,0,0,0-.417,2.865,9.131,9.131,0,0,0,.431,2.927,5.879,5.879,0,0,0,1.213,2.127,5.021,5.021,0,0,0,1.859,1.283,6.3,6.3,0,0,0,2.36.431A6.764,6.764,0,0,0,66.94,16.122Zm9.224-.141V4.442h4.394V2.895H70.03V4.442h4.395v11.54h1.74Z"/>
</svg>
