<svg xmlns="http://www.w3.org/2000/svg" preserveAspectRatio="none" viewBox="0 0 196 27">
  <defs>
    <style>
      .cls-1 {
        fill: #fff;
        fill-rule: evenodd;
      }
    </style>
  </defs>
  <path id="Heading" class="cls-1" d="M18.808,19.67L6.52,14.8,18.808,9.935V7.741L2.965,14.063v1.479l15.843,6.322V19.67ZM40.153,4.488H37.232v7.2h-10.1v-7.2H24.207V22.837h2.921V13.854h10.1v8.984h2.921V4.488ZM53.2,23.059q0.656-.1,1.468-0.283,0.575-.136,1.3-0.376l1.21-.4V19.473H57.014a7.772,7.772,0,0,1-.856.5,12.337,12.337,0,0,1-1.269.548,9.628,9.628,0,0,1-1.586.444,9.259,9.259,0,0,1-1.792.173,5.853,5.853,0,0,1-4-1.269,4.626,4.626,0,0,1-1.446-3.672H57.486V14.938a7.307,7.307,0,0,0-.472-2.791,5.221,5.221,0,0,0-1.357-1.929A5.566,5.566,0,0,0,53.591,9.06a9.087,9.087,0,0,0-2.714-.37,7.712,7.712,0,0,0-5.517,1.99,7.01,7.01,0,0,0-2.109,5.354A6.542,6.542,0,0,0,45.427,21.3a9.145,9.145,0,0,0,6.114,1.855A11.528,11.528,0,0,0,53.2,23.059ZM46.068,14.42a4.473,4.473,0,0,1,.413-1.534,3.871,3.871,0,0,1,.944-1.2,4.6,4.6,0,0,1,1.409-.807,6.589,6.589,0,0,1,3.762-.006,3.113,3.113,0,0,1,1.246.789,3.154,3.154,0,0,1,.678,1.146,5.464,5.464,0,0,1,.266,1.614H46.068ZM63.121,3.662H60.348V22.837h2.773V3.662Zm6.992,0H67.34V22.837h2.773V3.662Zm15.622,6.932a8.44,8.44,0,0,0-10.687.006,7.007,7.007,0,0,0-2.028,5.361,7.135,7.135,0,0,0,1.969,5.305,7.34,7.34,0,0,0,5.406,1.953,7.466,7.466,0,0,0,5.34-1.892,7.02,7.02,0,0,0,2.006-5.367A7.045,7.045,0,0,0,85.734,10.594ZM83.706,19.91a4.839,4.839,0,0,1-6.653-.025,5.789,5.789,0,0,1-1.173-3.925,5.786,5.786,0,0,1,1.173-3.974,4.915,4.915,0,0,1,6.66,0,5.812,5.812,0,0,1,1.165,3.974A5.772,5.772,0,0,1,83.706,19.91ZM122.023,4.488l-4.4,15.4-4.44-15.4h-2.965l-4.4,15.256L101.4,4.488H98.406l5.62,18.349h3.216l4.366-15.231,4.47,15.231h3.289l5.517-18.349h-2.861Zm15.68,6.106a8.44,8.44,0,0,0-10.687.006,7.007,7.007,0,0,0-2.028,5.361,7.135,7.135,0,0,0,1.969,5.305,7.34,7.34,0,0,0,5.406,1.953,7.464,7.464,0,0,0,5.34-1.892,7.021,7.021,0,0,0,2.006-5.367A7.046,7.046,0,0,0,137.7,10.594Zm-2.028,9.316a4.839,4.839,0,0,1-6.653-.025,5.788,5.788,0,0,1-1.173-3.925,5.785,5.785,0,0,1,1.173-3.974,4.269,4.269,0,0,1,3.341-1.3,4.226,4.226,0,0,1,3.319,1.3,5.811,5.811,0,0,1,1.166,3.974A5.772,5.772,0,0,1,135.675,19.91ZM151.289,9.146c-0.177-.025-0.337-0.043-0.479-0.055s-0.357-.018-0.642-0.018a5.768,5.768,0,0,0-2.191.462,12.914,12.914,0,0,0-2.647,1.583V9.072h-2.774V22.837h2.774V13.065a7.339,7.339,0,0,1,2.094-1.208,6.417,6.417,0,0,1,2.228-.407q0.486,0,.833.018a3.685,3.685,0,0,1,.657.093h0.147V9.146Zm4.986-5.484H153.5V22.837h2.773V3.662Zm16.758,0h-2.774V9.627a10.493,10.493,0,0,0-1.932-.709,8.988,8.988,0,0,0-2.154-.228A7.129,7.129,0,0,0,163.5,9.2a6.405,6.405,0,0,0-2.176,1.411,7.186,7.186,0,0,0-1.549,2.311,8.008,8.008,0,0,0-.56,3.136,9.781,9.781,0,0,0,.442,3.075,6.318,6.318,0,0,0,1.254,2.249,5.169,5.169,0,0,0,1.94,1.368,6.492,6.492,0,0,0,2.485.468,7.434,7.434,0,0,0,1.475-.129,7.273,7.273,0,0,0,1.225-.364,6.559,6.559,0,0,0,1.106-.542q0.472-.3,1.121-0.752v1.4h2.774V3.662ZM168.179,20.6a6.246,6.246,0,0,1-2.2.413A3.422,3.422,0,0,1,163,19.726a6.29,6.29,0,0,1-.93-3.715,5.568,5.568,0,0,1,1.21-3.863,4.285,4.285,0,0,1,3.348-1.337,9.271,9.271,0,0,1,1.778.16,10.237,10.237,0,0,1,1.851.579v7.936A8.788,8.788,0,0,1,168.179,20.6Zm25.874-6.537L178.21,7.741V9.935L190.5,14.8,178.21,19.67v2.193l15.843-6.322V14.063Z"/>
</svg>
