<svg xmlns="http://www.w3.org/2000/svg" xmlns:xlink="http://www.w3.org/1999/xlink" preserveAspectRatio="none" viewBox="0 0 512 47">
  <defs>
    <style>
      .cls-1 {
        filter: url(#filter);
      }

      .cls-2, .cls-3 {
        fill: #fff;
        fill-rule: evenodd;
      }

      .cls-2 {
        stroke: #fff;
        stroke-width: 1px;
      }
    </style>
    <filter id="filter" filterUnits="userSpaceOnUse">
      <feGaussianBlur result="blur" stdDeviation="9.667" in="SourceAlpha"/>
      <feComposite result="composite"/>
      <feComposite result="composite-2"/>
      <feComposite result="composite-3"/>
      <feFlood result="flood" flood-color="#59e8e6" flood-opacity="0.08"/>
      <feComposite result="composite-4" operator="in" in2="composite-3"/>
      <feBlend result="blend" in2="SourceGraphic"/>
      <feBlend result="blend-2" in="SourceGraphic"/>
    </filter>
  </defs>
  <g id="Footer" class="cls-1">
    <g id="Header_Top_copy" data-name="Header Top copy">
      <g id="Half_Left" data-name="Half Left">
        <g id="Main">
          <path id="Line_Angled" data-name="Line Angled" class="cls-2" d="M193.609,31.992l-0.641-1.175L207.943,0l0.641,1.175Z"/>
          <path id="Line_Horizontal_High" data-name="Line Horizontal High" class="cls-2" d="M208.225,1.993v-2H256v2H208.225Z"/>
          <path id="Line_Horizontal_Low" data-name="Line Horizontal Low" class="cls-3" d="M6.4,31.993v-2H193.6v2H6.4Z"/>
        </g>
        <g id="End_Decoration" data-name="End Decoration">
          <g id="Bottom">
            <path id="Vertical_Back" data-name="Vertical Back" class="cls-2" d="M1.131,36.993H0v10H1.131v-10Z"/>
            <path id="Horizontal_Back" data-name="Horizontal Back" class="cls-2" d="M15.6,36.993v-2H0v2H15.6Z"/>
          </g>
          <g id="Top">
            <path id="Vertical_Top" data-name="Vertical Top" class="cls-2" d="M1.131,24.993H0v-10H1.131v10Z"/>
            <path id="Horizontal_Top" data-name="Horizontal Top" class="cls-2" d="M15.6,24.993v2H0v-2H15.6Z"/>
          </g>
        </g>
      </g>
      <g id="Half_Right" data-name="Half Right">
        <g id="Main-2" data-name="Main">
          <path id="Line_Angled-2" data-name="Line Angled" class="cls-2" d="M318.391,31.992l0.641-1.175L304.057,0l-0.641,1.175Z"/>
          <path id="Line_Horizontal_High-2" data-name="Line Horizontal High" class="cls-2" d="M303.775,1.993v-2H256v2h47.775Z"/>
          <path id="Line_Horizontal_Low-2" data-name="Line Horizontal Low" class="cls-3" d="M505.6,31.993v-2H318.4v2H505.6Z"/>
        </g>
        <g id="End_Decoration-2" data-name="End Decoration">
          <g id="Bottom-2" data-name="Bottom">
            <path id="Vertical_Back-2" data-name="Vertical Back" class="cls-2" d="M510.868,36.993H512v10h-1.132v-10Z"/>
            <path id="Horizontal_Back-2" data-name="Horizontal Back" class="cls-2" d="M496.4,36.993v-2H512v2H496.4Z"/>
          </g>
          <g id="Top-2" data-name="Top">
            <path id="Vertical_Top-2" data-name="Vertical Top" class="cls-2" d="M510.868,24.993H512v-10h-1.132v10Z"/>
            <path id="Horizontal_Top-2" data-name="Horizontal Top" class="cls-2" d="M496.4,24.993v2H512v-2H496.4Z"/>
          </g>
        </g>
      </g>
    </g>
  </g>
</svg>
