<svg id="Footer" xmlns="http://www.w3.org/2000/svg" preserveAspectRatio="none" viewBox="0 0 512 47">
  <defs>
    <style>
      .cls-1, .cls-2 {
        fill: #fff;
        fill-rule: evenodd;
      }

      .cls-1 {
        stroke: #fff;
        stroke-width: 1px;
      }
    </style>
  </defs>
  <g id="Header_Top_copy" data-name="Header Top copy">
    <g id="Half_Right" data-name="Half Right">
      <g id="Main">
        <path id="Line_Angled" data-name="Line Angled" class="cls-1" d="M318.344,30.992L319,29.854,303.666,0,303.01,1.141Z"/>
        <path id="Line_Horizontal_High" data-name="Line Horizontal High" class="cls-1" d="M303.775,1.993v-2H256v2h47.775Z"/>
        <path id="Line_Horizontal_Low" data-name="Line Horizontal Low" class="cls-2" d="M505.6,31.993v-2H318.4v2H505.6Z"/>
      </g>
      <g id="End_Decoration" data-name="End Decoration">
        <g id="Bottom">
          <path id="Vertical_Back" data-name="Vertical Back" class="cls-1" d="M510.868,36.993H512v10h-1.132v-10Z"/>
          <path id="Horizontal_Back" data-name="Horizontal Back" class="cls-1" d="M496.4,36.993v-2H512v2H496.4Z"/>
        </g>
        <g id="Top">
          <path id="Vertical_Top" data-name="Vertical Top" class="cls-1" d="M510.868,24.993H512v-10h-1.132v10Z"/>
          <path id="Horizontal_Top" data-name="Horizontal Top" class="cls-1" d="M496.4,24.993v2H512v-2H496.4Z"/>
        </g>
      </g>
    </g>
    <g id="Half_Right_copy" data-name="Half Right copy">
      <g id="Main-2" data-name="Main">
        <path id="Line_Angled-2" data-name="Line Angled" class="cls-1" d="M193.656,30.992L193,29.854,208.334,0l0.656,1.139Z"/>
        <path id="Line_Horizontal_High-2" data-name="Line Horizontal High" class="cls-1" d="M208.225,1.993v-2H256v2H208.225Z"/>
        <path id="Line_Horizontal_Low-2" data-name="Line Horizontal Low" class="cls-2" d="M6.4,31.993v-2H193.6v2H6.4Z"/>
      </g>
      <g id="End_Decoration-2" data-name="End Decoration">
        <g id="Bottom-2" data-name="Bottom">
          <path id="Vertical_Back-2" data-name="Vertical Back" class="cls-1" d="M1.132,36.993H0v10H1.132v-10Z"/>
          <path id="Horizontal_Back-2" data-name="Horizontal Back" class="cls-1" d="M15.6,36.993v-2H0v2H15.6Z"/>
        </g>
        <g id="Top-2" data-name="Top">
          <path id="Vertical_Top-2" data-name="Vertical Top" class="cls-1" d="M1.132,24.993H0v-10H1.132v10Z"/>
          <path id="Horizontal_Top-2" data-name="Horizontal Top" class="cls-1" d="M15.6,24.993v2H0v-2H15.6Z"/>
        </g>
      </g>
    </g>
  </g>
</svg>
