<svg xmlns="http://www.w3.org/2000/svg" preserveAspectRatio="none" viewBox="0 0 64 64">
  <defs>
    <style>
      .cls-1 {
        fill: #fff;
        fill-rule: evenodd;
      }
    </style>
  </defs>
  <path id="icon_Instagram_1" data-name="icon_Instagram 1" class="cls-1" d="M52.87,64H11.13C4.983,64,0,57.451,0,49.371V14.629C0,6.549,4.983,0,11.13,0H52.87C59.017,0,64,6.549,64,14.629V49.371C64,57.451,59.017,64,52.87,64ZM32.7,12.8c-7.3,0-13.217,7.778-13.217,17.371S25.4,47.543,32.7,47.543s13.217-7.778,13.217-17.372S40,12.8,32.7,12.8ZM51.478,3.657c-2.305,0-4.174,2.456-4.174,5.486s1.869,5.486,4.174,5.486,4.174-2.456,4.174-5.486S53.783,3.657,51.478,3.657Zm8.348,12.8H46.585a27.677,27.677,0,0,1,3.5,13.714C50.087,42.8,42.3,53.029,32.7,53.029S15.3,42.8,15.3,30.171a27.677,27.677,0,0,1,3.5-13.714H4.174V43.886c0,8.079,4.983,14.629,11.13,14.629H48.7c6.147,0,11.13-6.55,11.13-14.629V16.457Z"/>
</svg>
