<svg xmlns="http://www.w3.org/2000/svg" preserveAspectRatio="none" viewBox="0 0 64 64">
  <defs>
    <style>
      .cls-1 {
        fill: #fff;
        fill-rule: evenodd;
      }
    </style>
  </defs>
  <path id="icon_Facebook_1" data-name="icon_Facebook 1" class="cls-1" d="M52.87,64H11.13C4.983,64,0,57.451,0,49.371V14.629C0,6.549,4.983,0,11.13,0H52.87C59.017,0,64,6.549,64,14.629V49.371C64,57.451,59.017,64,52.87,64ZM36.422,9.166a8.3,8.3,0,0,0-6.433,2.976c-2.129,2.534-2.985,6.553-2.985,10.547V24H23.674v5.81h3.331v25.03h6.219V29.81h5.331V24H33.181V22.389c0-3.777,1.027-7.023,4.1-7.023a6.1,6.1,0,0,1,2.649.558l0.434-5.992A9.9,9.9,0,0,0,36.422,9.166Z"/>
</svg>
